adventprofmm_reg_krn_t1_2.ufo
<glyph name="one" format="1">
  <advance width="177"/>
  <unicode hex="0031"/>
  <outline>
    <contour>
      <point x="-6" y="564" type="curve"/>
      <point x="6" y="528" type="line"/>
      <point x="36" y="532"/>
      <point x="86" y="557"/>
      <point x="108" y="575" type="curve"/>
      <point x="108" y="0" type="line"/>
      <point x="156" y="0" type="line"/>
      <point x="156" y="635" type="line"/>
      <point x="107" y="635" type="line"/>
      <point x="65" y="583"/>
      <point x="-6" y="564"/>
    </contour>
  </outline>
</glyph>
<glyph name="F" format="1">
  <advance width="321"/>
  <unicode hex="0046"/>
  <outline>
    <contour>
      <point x="20" y="0" type="line"/>
      <point x="71" y="0" type="line"/>
      <point x="71" y="324" type="line"/>
      <point x="224" y="324" type="line"/>
      <point x="245" y="374" type="line"/>
      <point x="71" y="374" type="line"/>
      <point x="71" y="586" type="line"/>
      <point x="323" y="586" type="line"/>
      <point x="323" y="635" type="line"/>
      <point x="20" y="635" type="line"/>
    </contour>
  </outline>
</glyph>
<glyph name="bracketleft" format="1">
  <advance width="180"/>
  <unicode hex="005B"/>
  <outline>
    <contour>
      <point x="167" y="741" type="line"/>
      <point x="21" y="741" type="line"/>
      <point x="21" y="-103" type="line"/>
      <point x="167" y="-103" type="line"/>
      <point x="167" y="-63" type="line"/>
      <point x="72" y="-54" type="line"/>
      <point x="72" y="691" type="line"/>
      <point x="167" y="700" type="line"/>
    </contour>
  </outline>
</glyph>
<glyph name="backslash" format="1">
  <advance width="371"/>
  <unicode hex="005C"/>
  <outline>
    <contour>
      <point x="64" y="741" type="line"/>
      <point x="13" y="741" type="line"/>
      <point x="303" y="-103" type="line"/>
      <point x="358" y="-103" type="line"/>
    </contour>
  </outline>
</glyph>
<glyph name="w" format="1">
  <advance width="610"/>
  <unicode hex="0077"/>
  <outline>
    <contour>
      <point x="175" y="52" type="line"/>
      <point x="54" y="453" type="line"/>
      <point x="1" y="453" type="line"/>
      <point x="139" y="0" type="line"/>
      <point x="209" y="0" type="line"/>
      <point x="302" y="367" type="line"/>
      <point x="393" y="0" type="line"/>
      <point x="463" y="0" type="line"/>
      <point x="604" y="453" type="line"/>
      <point x="550" y="453" type="line"/>
      <point x="429" y="52" type="line"/>
      <point x="329" y="453" type="line"/>
      <point x="277" y="453" type="line"/>
    </contour>
  </outline>
</glyph>
<glyph name="x" format="1">
  <advance width="364"/>
  <unicode hex="0078"/>
  <outline>
    <contour>
      <point x="11" y="453" type="line"/>
      <point x="153" y="225" type="line"/>
      <point x="11" y="0" type="line"/>
      <point x="71" y="0" type="line"/>
      <point x="183" y="179" type="line"/>
      <point x="294" y="0" type="line"/>
      <point x="354" y="0" type="line"/>
      <point x="212" y="225" type="line"/>
      <point x="354" y="453" type="line"/>
      <point x="297" y="453" type="line"/>
      <point x="183" y="272" type="line"/>
      <point x="69" y="453" type="line"/>
    </contour>
  </outline>
</glyph>
<glyph name="sfthyphen" format="1">
  <advance width="439"/>
  <unicode hex="00AD"/>
  <outline>
    <contour>
      <point x="328" y="375" type="line"/>
      <point x="38" y="375" type="line"/>
      <point x="38" y="323" type="line"/>
      <point x="328" y="323" type="line"/>
    </contour>
  </outline>
</glyph>
<glyph name="mu" format="1">
  <advance width="388"/>
  <unicode hex="00B5"/>
  <outline>
    <contour>
      <point x="354" y="85" type="curve" smooth="yes"/>
      <point x="354" y="462" type="line"/>
      <point x="302" y="451" type="line"/>
      <point x="302" y="139" type="line" smooth="yes"/>
      <point x="302" y="71"/>
      <point x="271" y="39"/>
      <point x="209" y="39" type="curve" smooth="yes"/>
      <point x="129" y="39"/>
      <point x="84" y="81"/>
      <point x="70" y="95" type="curve"/>
      <point x="70" y="454" type="line"/>
      <point x="18" y="454" type="line"/>
      <point x="18" y="-182" type="line"/>
      <point x="70" y="-190" type="line"/>
      <point x="70" y="40" type="line"/>
      <point x="70" y="40"/>
      <point x="119" y="-11"/>
      <point x="206" y="-11" type="curve" smooth="yes"/>
      <point x="252" y="-11"/>
      <point x="291" y="8"/>
      <point x="310" y="40" type="curve"/>
      <point x="330" y="2"/>
      <point x="354" y="-5"/>
      <point x="354" y="-5" type="curve"/>
      <point x="378" y="24" type="line"/>
      <point x="378" y="24"/>
      <point x="354" y="46"/>
    </contour>
  </outline>
</glyph>
<glyph name="Oslash" format="1">
  <advance width="418"/>
  <unicode hex="00D8"/>
  <outline>
    <contour>
      <point x="14" y="460" type="curve" smooth="yes"/>
      <point x="14" y="168" type="line" smooth="yes"/>
      <point x="14" y="51"/>
      <point x="98" y="-10"/>
      <point x="205" y="-10" type="curve" smooth="yes"/>
      <point x="317" y="-10"/>
      <point x="395" y="58"/>
      <point x="395" y="168" type="curve" smooth="yes"/>
      <point x="395" y="459" type="line" smooth="yes"/>
      <point x="395" y="577"/>
      <point x="326" y="649"/>
      <point x="206" y="649" type="curve" smooth="yes"/>
      <point x="86" y="649"/>
      <point x="14" y="584"/>
    </contour>
    <contour>
      <point x="65" y="169" type="curve" smooth="yes"/>
      <point x="65" y="468" type="line" smooth="yes"/>
      <point x="65" y="556"/>
      <point x="120" y="601"/>
      <point x="204" y="601" type="curve" smooth="yes"/>
      <point x="289" y="601"/>
      <point x="345" y="556"/>
      <point x="345" y="468" type="curve" smooth="yes"/>
      <point x="345" y="169" type="line" smooth="yes"/>
      <point x="345" y="80"/>
      <point x="287" y="38"/>
      <point x="204" y="38" type="curve" smooth="yes"/>
      <point x="124" y="38"/>
      <point x="65" y="82"/>
    </contour>
    <contour>
      <point x="406" y="741" type="line"/>
      <point x="355" y="741" type="line"/>
      <point x="61" y="-103" type="line"/>
      <point x="116" y="-103" type="line"/>
    </contour>
  </outline>
</glyph>
<glyph name="Udieresis" format="1">
  <advance width="414"/>
  <unicode hex="00DC"/>
  <outline>
    <contour>
      <point x="396" y="168" type="curve" smooth="yes"/>
      <point x="396" y="635" type="line"/>
      <point x="346" y="635" type="line"/>
      <point x="346" y="169" type="line" smooth="yes"/>
      <point x="346" y="127"/>
      <point x="333" y="96"/>
      <point x="311" y="74" type="curve" smooth="yes"/>
      <point x="286" y="49"/>
      <point x="250" y="38"/>
      <point x="206" y="38" type="curve" smooth="yes"/>
      <point x="168" y="38"/>
      <point x="134" y="48"/>
      <point x="110" y="67" type="curve" smooth="yes"/>
      <point x="82" y="89"/>
      <point x="66" y="123"/>
      <point x="66" y="169" type="curve" smooth="yes"/>
      <point x="66" y="635" type="line"/>
      <point x="16" y="635" type="line"/>
      <point x="16" y="168" type="line" smooth="yes"/>
      <point x="16" y="107"/>
      <point x="35" y="62"/>
      <point x="72" y="33" type="curve" smooth="yes"/>
      <point x="110" y="4"/>
      <point x="155" y="-10"/>
      <point x="207" y="-10" type="curve" smooth="yes"/>
      <point x="258" y="-10"/>
      <point x="303" y="4"/>
      <point x="340" y="33" type="curve" smooth="yes"/>
      <point x="377" y="62"/>
      <point x="396" y="107"/>
    </contour>
    <contour>
      <point x="308" y="730" type="curve" smooth="yes"/>
      <point x="308" y="747"/>
      <point x="294" y="760"/>
      <point x="278" y="760" type="curve" smooth="yes"/>
      <point x="261" y="760"/>
      <point x="247" y="747"/>
      <point x="247" y="730" type="curve" smooth="yes"/>
      <point x="247" y="713"/>
      <point x="261" y="699"/>
      <point x="278" y="699" type="curve" smooth="yes"/>
      <point x="294" y="699"/>
      <point x="308" y="713"/>
    </contour>
    <contour>
      <point x="165" y="730" type="curve" smooth="yes"/>
      <point x="165" y="747"/>
      <point x="151" y="760"/>
      <point x="134" y="760" type="curve" smooth="yes"/>
      <point x="117" y="760"/>
      <point x="104" y="747"/>
      <point x="104" y="730" type="curve" smooth="yes"/>
      <point x="104" y="713"/>
      <point x="117" y="699"/>
      <point x="134" y="699" type="curve" smooth="yes"/>
      <point x="151" y="699"/>
      <point x="165" y="713"/>
    </contour>
  </outline>
</glyph>
<glyph name="igrave" format="1">
  <advance width="127"/>
  <unicode hex="00EC"/>
  <outline>
    <contour>
      <point x="109" y="454" type="line"/>
      <point x="59" y="454" type="line"/>
      <point x="59" y="0" type="line"/>
      <point x="109" y="0" type="line"/>
    </contour>
    <contour>
      <point x="14" y="566" type="curve"/>
      <point x="62" y="494" type="line"/>
      <point x="94" y="494" type="line"/>
      <point x="60" y="592" type="line" smooth="yes"/>
      <point x="54" y="608"/>
      <point x="36" y="618"/>
      <point x="20" y="610" type="curve" smooth="yes"/>
      <point x="4" y="601"/>
      <point x="2" y="580"/>
    </contour>
  </outline>
</glyph>
<glyph name="amacron" format="1">
  <advance width="375"/>
  <unicode hex="0101"/>
  <outline>
    <contour>
      <point x="308" y="317" type="curve"/>
      <point x="266" y="341"/>
      <point x="208" y="365"/>
      <point x="149" y="365" type="curve" smooth="yes"/>
      <point x="76" y="365"/>
      <point x="10" y="330"/>
      <point x="10" y="228" type="curve" smooth="yes"/>
      <point x="10" y="203"/>
      <point x="10" y="178"/>
      <point x="10" y="153" type="curve" smooth="yes"/>
      <point x="10" y="19"/>
      <point x="99" y="-13"/>
      <point x="216" y="-9" type="curve" smooth="yes"/>
      <point x="261" y="-8"/>
      <point x="359" y="0"/>
      <point x="359" y="0" type="curve"/>
      <point x="359" y="87"/>
      <point x="359" y="174"/>
      <point x="359" y="261" type="curve" smooth="yes"/>
      <point x="359" y="341"/>
      <point x="352" y="404"/>
      <point x="295" y="436" type="curve" smooth="yes"/>
      <point x="257" y="458"/>
      <point x="212" y="461"/>
      <point x="170" y="461" type="curve"/>
      <point x="168" y="422" type="line"/>
      <point x="202" y="422"/>
      <point x="233" y="419"/>
      <point x="256" y="408" type="curve" smooth="yes"/>
      <point x="289" y="393"/>
      <point x="308" y="367"/>
    </contour>
    <contour>
      <point x="308" y="275" type="curve"/>
      <point x="308" y="197"/>
      <point x="308" y="120"/>
      <point x="308" y="42" type="curve"/>
      <point x="308" y="42"/>
      <point x="271" y="38"/>
      <point x="212" y="35" type="curve" smooth="yes"/>
      <point x="91" y="30"/>
      <point x="60" y="73"/>
      <point x="60" y="159" type="curve" smooth="yes"/>
      <point x="60" y="177"/>
      <point x="60" y="205"/>
      <point x="60" y="226" type="curve" smooth="yes"/>
      <point x="60" y="308"/>
      <point x="112" y="322"/>
      <point x="145" y="322" type="curve" smooth="yes"/>
      <point x="203" y="322"/>
      <point x="258" y="299"/>
    </contour>
    <contour>
      <point x="285" y="552" type="line"/>
      <point x="84" y="552" type="line"/>
      <point x="84" y="500" type="line"/>
      <point x="285" y="500" type="line"/>
    </contour>
  </outline>
</glyph>
<glyph name="Hcircumflex" format="1">
  <advance width="429"/>
  <unicode hex="0124"/>
  <outline>
    <contour>
      <point x="70" y="635" type="line"/>
      <point x="19" y="635" type="line"/>
      <point x="19" y="0" type="line"/>
      <point x="70" y="0" type="line"/>
      <point x="70" y="324" type="line"/>
      <point x="358" y="324" type="line"/>
      <point x="358" y="0" type="line"/>
      <point x="409" y="0" type="line"/>
      <point x="409" y="635" type="line"/>
      <point x="358" y="635" type="line"/>
      <point x="358" y="374" type="line"/>
      <point x="70" y="374" type="line"/>
    </contour>
    <contour>
      <point x="215" y="754" type="line"/>
      <point x="296" y="674" type="line"/>
      <point x="331" y="709" type="line"/>
      <point x="215" y="823" type="line"/>
      <point x="95" y="707" type="line"/>
      <point x="130" y="673" type="line"/>
    </contour>
  </outline>
</glyph>
<glyph name="hcircumflex" format="1">
  <advance width="370"/>
  <unicode hex="0125"/>
  <outline>
    <contour>
      <point x="70" y="423" type="curve"/>
      <point x="70" y="635" type="line"/>
      <point x="19" y="635" type="line"/>
      <point x="19" y="0" type="line"/>
      <point x="70" y="0" type="line"/>
      <point x="70" y="385" type="line"/>
      <point x="107" y="406"/>
      <point x="145" y="416"/>
      <point x="186" y="416" type="curve" smooth="yes"/>
      <point x="244" y="416"/>
      <point x="304" y="393"/>
      <point x="304" y="311" type="curve" smooth="yes"/>
      <point x="304" y="0" type="line"/>
      <point x="354" y="0" type="line"/>
      <point x="354" y="314" type="line" smooth="yes"/>
      <point x="354" y="409"/>
      <point x="296" y="462"/>
      <point x="196" y="462" type="curve" smooth="yes"/>
      <point x="151" y="462"/>
      <point x="105" y="447"/>
    </contour>
    <contour>
      <point x="188" y="724" type="line"/>
      <point x="270" y="644" type="line"/>
      <point x="305" y="679" type="line"/>
      <point x="188" y="793" type="line"/>
      <point x="69" y="677" type="line"/>
      <point x="104" y="643" type="line"/>
    </contour>
  </outline>
</glyph>
<glyph name="imacron" format="1">
  <advance width="207"/>
  <unicode hex="012B"/>
  <outline>
    <contour>
      <point x="127" y="454" type="line"/>
      <point x="77" y="454" type="line"/>
      <point x="77" y="0" type="line"/>
      <point x="127" y="0" type="line"/>
    </contour>
    <contour>
      <point x="202" y="547" type="line"/>
      <point x="2" y="547" type="line"/>
      <point x="2" y="495" type="line"/>
      <point x="202" y="495" type="line"/>
    </contour>
  </outline>
</glyph>
<glyph name="Umacron" format="1">
  <advance width="414"/>
  <unicode hex="016A"/>
  <outline>
    <contour>
      <point x="396" y="168" type="curve" smooth="yes"/>
      <point x="396" y="635" type="line"/>
      <point x="346" y="635" type="line"/>
      <point x="346" y="169" type="line" smooth="yes"/>
      <point x="346" y="127"/>
      <point x="333" y="96"/>
      <point x="311" y="74" type="curve" smooth="yes"/>
      <point x="286" y="49"/>
      <point x="250" y="38"/>
      <point x="206" y="38" type="curve" smooth="yes"/>
      <point x="168" y="38"/>
      <point x="134" y="48"/>
      <point x="110" y="67" type="curve" smooth="yes"/>
      <point x="82" y="89"/>
      <point x="66" y="123"/>
      <point x="66" y="169" type="curve" smooth="yes"/>
      <point x="66" y="635" type="line"/>
      <point x="16" y="635" type="line"/>
      <point x="16" y="168" type="line" smooth="yes"/>
      <point x="16" y="107"/>
      <point x="35" y="62"/>
      <point x="72" y="33" type="curve" smooth="yes"/>
      <point x="110" y="4"/>
      <point x="155" y="-10"/>
      <point x="207" y="-10" type="curve" smooth="yes"/>
      <point x="258" y="-10"/>
      <point x="303" y="4"/>
      <point x="340" y="33" type="curve" smooth="yes"/>
      <point x="377" y="62"/>
      <point x="396" y="107"/>
    </contour>
    <contour>
      <point x="306" y="728" type="line"/>
      <point x="106" y="728" type="line"/>
      <point x="106" y="676" type="line"/>
      <point x="306" y="676" type="line"/>
    </contour>
  </outline>
</glyph>
<glyph name="Zdotaccent" format="1">
  <advance width="464"/>
  <unicode hex="017B"/>
  <outline>
    <contour>
      <point x="22" y="588" type="line"/>
      <point x="382" y="588" type="line"/>
      <point x="11" y="45" type="line"/>
      <point x="11" y="0" type="line"/>
      <point x="452" y="0" type="line"/>
      <point x="452" y="46" type="line"/>
      <point x="75" y="46" type="line"/>
      <point x="447" y="589" type="line"/>
      <point x="447" y="635" type="line"/>
      <point x="22" y="635" type="line"/>
    </contour>
    <contour>
      <point x="262" y="729" type="curve" smooth="yes"/>
      <point x="262" y="746"/>
      <point x="248" y="759"/>
      <point x="231" y="759" type="curve" smooth="yes"/>
      <point x="214" y="759"/>
      <point x="201" y="746"/>
      <point x="201" y="729" type="curve" smooth="yes"/>
      <point x="201" y="712"/>
      <point x="214" y="698"/>
      <point x="231" y="698" type="curve" smooth="yes"/>
      <point x="248" y="698"/>
      <point x="262" y="712"/>
    </contour>
  </outline>
</glyph>
<glyph name="ring" format="1">
  <advance width="347"/>
  <unicode hex="02DA"/>
  <outline>
    <contour>
      <point x="98" y="703" type="curve" smooth="yes"/>
      <point x="41" y="703"/>
      <point x="-5" y="657"/>
      <point x="-5" y="600" type="curve" smooth="yes"/>
      <point x="-5" y="542"/>
      <point x="41" y="496"/>
      <point x="98" y="496" type="curve" smooth="yes"/>
      <point x="155" y="496"/>
      <point x="201" y="542"/>
      <point x="201" y="600" type="curve" smooth="yes"/>
      <point x="201" y="657"/>
      <point x="155" y="703"/>
    </contour>
    <contour>
      <point x="98" y="663" type="curve" smooth="yes"/>
      <point x="133" y="663"/>
      <point x="161" y="635"/>
      <point x="161" y="600" type="curve" smooth="yes"/>
      <point x="161" y="565"/>
      <point x="133" y="536"/>
      <point x="98" y="536" type="curve" smooth="yes"/>
      <point x="63" y="536"/>
      <point x="35" y="565"/>
      <point x="35" y="600" type="curve" smooth="yes"/>
      <point x="35" y="635"/>
      <point x="63" y="663"/>
    </contour>
  </outline>
</glyph>
<glyph name="upsilondieresistonos" format="1">
  <advance width="364"/>
  <unicode hex="03B0"/>
  <outline>
    <contour>
      <point x="349" y="167" type="curve" smooth="yes"/>
      <point x="349" y="454" type="line"/>
      <point x="300" y="454" type="line"/>
      <point x="300" y="158" type="line" smooth="yes"/>
      <point x="300" y="84"/>
      <point x="260" y="36"/>
      <point x="185" y="36" type="curve" smooth="yes"/>
      <point x="112" y="36"/>
      <point x="65" y="85"/>
      <point x="65" y="158" type="curve" smooth="yes"/>
      <point x="65" y="454" type="line"/>
      <point x="13" y="454" type="line"/>
      <point x="13" y="167" type="line" smooth="yes"/>
      <point x="13" y="68"/>
      <point x="71" y="-9"/>
      <point x="184" y="-9" type="curve" smooth="yes"/>
      <point x="296" y="-9"/>
      <point x="349" y="65"/>
    </contour>
    <contour>
      <point x="191" y="684" type="curve" smooth="yes"/>
      <point x="157" y="586" type="line"/>
      <point x="189" y="586" type="line"/>
      <point x="237" y="658" type="line"/>
      <point x="249" y="672"/>
      <point x="247" y="693"/>
      <point x="231" y="702" type="curve" smooth="yes"/>
      <point x="215" y="710"/>
      <point x="197" y="700"/>
    </contour>
    <contour>
      <point x="253" y="577" type="curve" smooth="yes"/>
      <point x="236" y="577"/>
      <point x="222" y="563"/>
      <point x="222" y="547" type="curve" smooth="yes"/>
      <point x="222" y="530"/>
      <point x="236" y="516"/>
      <point x="253" y="516" type="curve" smooth="yes"/>
      <point x="269" y="516"/>
      <point x="283" y="530"/>
      <point x="283" y="547" type="curve" smooth="yes"/>
      <point x="283" y="563"/>
      <point x="269" y="577"/>
    </contour>
    <contour>
      <point x="109" y="577" type="curve" smooth="yes"/>
      <point x="92" y="577"/>
      <point x="79" y="563"/>
      <point x="79" y="547" type="curve" smooth="yes"/>
      <point x="79" y="530"/>
      <point x="92" y="516"/>
      <point x="109" y="516" type="curve" smooth="yes"/>
      <point x="126" y="516"/>
      <point x="139" y="530"/>
      <point x="139" y="547" type="curve" smooth="yes"/>
      <point x="139" y="563"/>
      <point x="126" y="577"/>
    </contour>
  </outline>
</glyph>
<glyph name="lambda" format="1">
  <advance width="428"/>
  <unicode hex="03BB"/>
  <outline>
    <contour>
      <point x="347" y="112" type="curve" smooth="yes"/>
      <point x="229" y="505" type="line"/>
      <point x="215" y="544"/>
      <point x="201" y="629"/>
      <point x="93" y="632" type="curve"/>
      <point x="84" y="593" type="line"/>
      <point x="132" y="592"/>
      <point x="159" y="563"/>
      <point x="171" y="524" type="curve" smooth="yes"/>
      <point x="191" y="458" type="line"/>
      <point x="139" y="438"/>
      <point x="122" y="388"/>
      <point x="105" y="336" type="curve" smooth="yes"/>
      <point x="72" y="224"/>
      <point x="40" y="111"/>
      <point x="7" y="-1" type="curve"/>
      <point x="58" y="-1" type="line"/>
      <point x="90" y="108"/>
      <point x="122" y="217"/>
      <point x="154" y="326" type="curve" smooth="yes"/>
      <point x="170" y="384"/>
      <point x="185" y="402"/>
      <point x="206" y="413" type="curve"/>
      <point x="237" y="309"/>
      <point x="269" y="205"/>
      <point x="300" y="101" type="curve" smooth="yes"/>
      <point x="319" y="36"/>
      <point x="339" y="2"/>
      <point x="393" y="-10" type="curve"/>
      <point x="404" y="-1"/>
      <point x="415" y="9"/>
      <point x="426" y="18" type="curve"/>
      <point x="374" y="35"/>
      <point x="353" y="92"/>
    </contour>
  </outline>
</glyph>
<glyph name="quoteright" format="1">
  <advance width="94"/>
  <unicode hex="2019"/>
  <outline>
    <contour>
      <point x="15" y="506" type="curve"/>
      <point x="31" y="495" type="line"/>
      <point x="49" y="511"/>
      <point x="79" y="547"/>
      <point x="79" y="604" type="curve" smooth="yes"/>
      <point x="79" y="622"/>
      <point x="65" y="635"/>
      <point x="48" y="635" type="curve" smooth="yes"/>
      <point x="32" y="635"/>
      <point x="18" y="621"/>
      <point x="18" y="604" type="curve" smooth="yes"/>
      <point x="18" y="589"/>
      <point x="29" y="577"/>
      <point x="43" y="574" type="curve"/>
      <point x="41" y="555"/>
      <point x="34" y="530"/>
    </contour>
  </outline>
</glyph>
<glyph name="quotedblright" format="1">
  <advance width="257"/>
  <unicode hex="201D"/>
  <outline>
    <contour>
      <point x="15" y="506" type="curve"/>
      <point x="31" y="495" type="line"/>
      <point x="49" y="511"/>
      <point x="78" y="547"/>
      <point x="79" y="604" type="curve"/>
      <point x="78" y="622"/>
      <point x="65" y="635"/>
      <point x="48" y="635" type="curve" smooth="yes"/>
      <point x="31" y="635"/>
      <point x="18" y="621"/>
      <point x="18" y="604" type="curve" smooth="yes"/>
      <point x="18" y="589"/>
      <point x="29" y="577"/>
      <point x="43" y="574" type="curve"/>
      <point x="41" y="555"/>
      <point x="34" y="530"/>
    </contour>
    <contour>
      <point x="178" y="506" type="curve"/>
      <point x="194" y="495" type="line"/>
      <point x="212" y="511"/>
      <point x="242" y="547"/>
      <point x="242" y="604" type="curve" smooth="yes"/>
      <point x="242" y="622"/>
      <point x="228" y="635"/>
      <point x="211" y="635" type="curve" smooth="yes"/>
      <point x="195" y="635"/>
      <point x="181" y="621"/>
      <point x="181" y="604" type="curve" smooth="yes"/>
      <point x="181" y="589"/>
      <point x="192" y="577"/>
      <point x="206" y="574" type="curve"/>
      <point x="204" y="555"/>
      <point x="197" y="530"/>
    </contour>
  </outline>
</glyph>
